<?xml version="1.0" encoding="iso-8859-1"?>
<!-- Generator: Adobe Illustrator 19.0.0, SVG Export Plug-In . SVG Version: 6.00 Build 0)  -->
<svg version="1.1" id="Capa_1" xmlns="http://www.w3.org/2000/svg" xmlns:xlink="http://www.w3.org/1999/xlink" x="0px" y="0px"
	 viewBox="0 0 512.009 512.009" style="enable-background:new 0 0 512.009 512.009;" xml:space="preserve">
<g>
	<g>
		<path d="M441.071,192.046l-3.729-0.042c-51.917,0-98.948,28.75-122.781,74.156c-14.875-6.656-31.115-10.156-47.885-10.156
			c-16.856,0-33.055,3.759-47.872,10.45c-3.969,1.792-6.307,6.005-5.977,10.348c0.28,3.691,0.516,7.397,0.516,11.202
			c0,17.385-3.5,33.323-10.396,47.365c-1.854,3.781-5.646,5.969-9.583,5.969c-1.573,0-3.177-0.354-4.688-1.094
			c-5.292-2.594-7.469-8.99-4.875-14.271c5.448-11.104,8.208-23.875,8.208-37.969c0-7.82-1.664-28.522-1.947-31.085
			c-1.01-9.141-2.26-18.068-3.46-26.405c-0.003-0.021,0.007-0.04,0.004-0.061c-1.987-13.837-3.921-27.276-4.046-38.46l53.933,0.01
			c8.491,0.002,16.635-3.371,22.639-9.375l42.667-42.667c12.198-12.198,12.469-31.875,0.813-44.406
			c5.567-8.46,6.936-19.292,2.973-29.469c-2.49-6.395-7.326-11.625-13.037-15.431l-24.843-16.558
			c-11.443-7.627-24.744-12.292-38.489-12.705c-32.731-0.985-63.653,11.306-86.698,34.351
			C101.654,96.608,69.498,143.4,46.915,194.827c-27.208,61.958-41,107.667-41,135.844c0,16.146-1.396,29.26-4.156,38.99
			c-5.896,20.781,3.385,42.948,22.563,53.906c76.823,43.896,164.198,67.104,252.677,67.104h15.427
			c54.96,0,109.557-8.895,161.674-26.34l6.857-2.295c30.495-10.208,51.052-38.766,51.052-70.925V266.765
			C512.009,226.598,480.186,193.077,441.071,192.046z"/>
	</g>
</g>
<g>
</g>
<g>
</g>
<g>
</g>
<g>
</g>
<g>
</g>
<g>
</g>
<g>
</g>
<g>
</g>
<g>
</g>
<g>
</g>
<g>
</g>
<g>
</g>
<g>
</g>
<g>
</g>
<g>
</g>
</svg>
